# xmcd
#
# Track frame offsets:
# 150
# 12711
# 30230
# 44180
# 61319
# 75691
# 84852
# 102310
# 120644
# 132924
# 149226
# 165623
# 180675
# 189620
#
# Disc length: 2730 seconds
#
#
# Revision: 1
# Processed by: cddbd v1.5.2PL0 Copyright (c) Steve Scherf et al.
# Submitted via: FreeRIP 2.96 
#
DISCID=c40aa80e
DTITLE=Jads e Jadson - Jads e Jadson
DYEAR=2005
DGENRE=Sertanejo
TTITLE0=Guerra de Poderes
TTITLE1=Como Vai Você
TTITLE2=Aonde Eu Chego
TTITLE3=Cara Na Porta
TTITLE4=Tiro No Escuro
TTITLE5=Não Vivo Sem Paixão e Viola
TTITLE6=Amores Vem e Vão
TTITLE7=Curva do Adeus
TTITLE8=Terra de Violeiro
TTITLE9=Volta Pra Mim
TTITLE10=No Som da Viola
TTITLE11=Nossa História
TTITLE12=O Charme do Violeiro
TTITLE13=Coração Covarde
EXTD=
EXTT0=
EXTT1=
EXTT2=
EXTT3=
EXTT4=
EXTT5=
EXTT6=
EXTT7=
EXTT8=
EXTT9=
EXTT10=
EXTT11=
EXTT12=
EXTT13=
PLAYORDER=
